<svg xmlns="http://www.w3.org/2000/svg" width="1682.385" height="411.124" viewBox="0 0 1682.385 411.124">
  <g id="Vagues" transform="translate(-88.366 -2451.804)">
    <path id="Tracé_2" data-name="Tracé 2" d="M98.824,2885.832s89.84-206.826,147.164-199.93,78.941,199.93,145.057,199.93,97.249-144.583,157.554-147.609,129.2,153.1,184.173,160.829S806.012,2784.47,886.1,2784.47s103.317,111.487,168.7,114.582c24.975,1.182,48.478-13.623,72.4-32.494,38.3-30.217,77.45-70.88,124.656-70.88,76.385,0,107.7,103.375,183.607,103.375s104.079-65.005,173.82-61.746,171.18,75.214,171.18,75.214" transform="translate(-10 -50)" fill="none" stroke="#fff" stroke-width="1"/>
    <path id="Tracé_3" data-name="Tracé 3" d="M98.824,2885.832s89.84-206.826,147.164-199.93,78.941,199.93,145.057,199.93,97.249-144.583,157.554-147.609,129.2,153.1,184.173,160.829S806.012,2784.47,886.1,2784.47s103.317,111.487,168.7,114.582c24.975,1.182,48.478-13.623,72.4-32.494,38.3-30.217,77.45-70.88,124.656-70.88,76.385,0,107.7,103.375,183.607,103.375s104.079-65.005,173.82-61.746,171.18,75.214,171.18,75.214" transform="translate(-10 -63)" fill="none" stroke="#fff" stroke-width="1"/>
    <path id="Tracé_4" data-name="Tracé 4" d="M98.824,2885.832s89.84-206.826,147.164-199.93,78.941,199.93,145.057,199.93,97.249-144.583,157.554-147.609,129.2,153.1,184.173,160.829S806.012,2784.47,886.1,2784.47s103.317,111.487,168.7,114.582c24.975,1.182,48.478-13.623,72.4-32.494,38.3-30.217,77.45-70.88,124.656-70.88,76.385,0,107.7,103.375,183.607,103.375s104.079-65.005,173.82-61.746,171.18,75.214,171.18,75.214" transform="translate(-10 -80)" fill="none" stroke="#fff" stroke-width="1"/>
    <path id="Tracé_5" data-name="Tracé 5" d="M98.824,2885.832s89.84-206.826,147.164-199.93,78.941,199.93,145.057,199.93,97.249-144.583,157.554-147.609,129.2,153.1,184.173,160.829S806.012,2784.47,886.1,2784.47s103.317,111.487,168.7,114.582c24.975,1.182,48.478-13.623,72.4-32.494,38.3-30.217,77.45-70.88,124.656-70.88,76.385,0,107.7,103.375,183.607,103.375s104.079-65.005,173.82-61.746,171.18,75.214,171.18,75.214" transform="translate(-10 -97)" fill="none" stroke="#fff" stroke-width="1"/>
  </g>
  <path id="Tracé_15" data-name="Tracé 15" d="M2.25,32H5.67V22.88h6.9V20.09H5.67V13.94h8.85V11.15H2.25ZM17.7,32h3.42V15.47H17.7Zm1.74-18.72a2.19,2.19,0,1,0-2.19-2.19A2.158,2.158,0,0,0,19.44,13.28ZM37.35,32h3.39V22.25c0-4.62-2.91-7.05-6.78-7.05a6.359,6.359,0,0,0-4.92,2.16V15.47H25.62V32h3.42V22.76c0-3.03,1.65-4.59,4.17-4.59,2.49,0,4.14,1.56,4.14,4.59Zm6.6-8.34c0,5.1,3.45,8.61,7.74,8.61a7.115,7.115,0,0,0,5.79-2.73V32h3.45V15.47H57.48v2.4a7.036,7.036,0,0,0-5.73-2.67C47.4,15.2,43.95,18.56,43.95,23.66Zm13.53.06c0,3.57-2.43,5.58-5.01,5.58-2.55,0-5.01-2.07-5.01-5.64s2.46-5.49,5.01-5.49C55.05,18.17,57.48,20.18,57.48,23.72ZM65.43,32h3.42V9.8H65.43ZM80.01,21.53A10.411,10.411,0,0,0,90.66,32.18c4.35,0,8.1-2.16,9.69-6.24H96.24a5.826,5.826,0,0,1-5.58,3.27c-4.14,0-7.14-2.97-7.14-7.68s3-7.65,7.14-7.65a5.826,5.826,0,0,1,5.58,3.27h4.11c-1.59-4.08-5.34-6.27-9.69-6.27A10.429,10.429,0,0,0,80.01,21.53Zm39.3-6.06h-3.42v9.21c0,3.03-1.65,4.59-4.17,4.59-2.49,0-4.14-1.56-4.14-4.59V15.47h-3.39v9.72c0,4.62,2.94,7.05,6.81,7.05a6.153,6.153,0,0,0,4.89-2.22V32h3.42Zm5.04,11.94c0,3.36,1.83,4.59,4.77,4.59h2.7V29.15h-2.1c-1.44,0-1.92-.51-1.92-1.74V18.26h4.02V15.47H127.8V11.36h-3.45v4.11H122.4v2.79h1.95Zm21.84-6.66V13.94h3.78c2.67,0,3.87,1.26,3.87,3.42,0,2.1-1.2,3.39-3.87,3.39Zm11.16-3.39c0-3.39-2.43-6.21-7.38-6.21h-7.2V32h3.42V23.54h3.78C155.4,23.54,157.35,20.33,157.35,17.36Zm6.69,5.94c0-3.51,1.56-4.56,4.08-4.56h.87V15.2a5.384,5.384,0,0,0-4.95,2.67v-2.4h-3.42V32h3.42Zm23.85.42a8.43,8.43,0,1,0-16.86,0c0,5.19,3.57,8.55,8.28,8.55A8.28,8.28,0,0,0,187.89,23.72Zm-13.38,0c0-3.75,2.31-5.55,4.89-5.55,2.55,0,4.98,1.8,4.98,5.55s-2.52,5.58-5.07,5.58C176.73,29.3,174.51,27.47,174.51,23.72Z" transform="translate(55.725 36.919)" fill="#fff"/>
  <path id="Tracé_17" data-name="Tracé 17" d="M6.12,20.84A5.445,5.445,0,0,0,1.74,26.3c0,3.87,3,6.33,7.62,6.33s7.62-2.46,7.62-6.33a5.445,5.445,0,0,0-4.38-5.46,5.034,5.034,0,0,0,3.81-5.01c0-3.18-2.46-5.64-7.05-5.64s-7.05,2.46-7.05,5.64A5,5,0,0,0,6.12,20.84Zm3.24-.69c-3,0-5.01-1.59-5.01-4.08,0-2.73,2.01-4.14,5.01-4.14,3.03,0,5.01,1.44,5.01,4.14C14.37,18.56,12.36,20.15,9.36,20.15Zm0,1.62c3.09,0,5.55,1.38,5.55,4.47,0,2.85-2.16,4.62-5.55,4.62-3.42,0-5.58-1.74-5.58-4.62C3.78,23.09,6.3,21.77,9.36,21.77ZM21.3,10.46V22.37h1.98a5.3,5.3,0,0,1,5.01-3c3.42,0,5.22,2.01,5.22,5.28,0,3.24-1.65,5.64-5.28,5.64a4.994,4.994,0,0,1-5.28-4.14H20.88c.54,3.57,3.18,5.94,7.35,5.94,5.07,0,7.29-3.42,7.29-7.47,0-3.39-1.77-7.05-6.96-7.05a6.674,6.674,0,0,0-5.31,2.4V12.29H34.23V10.46Zm25.44,4.53a4.216,4.216,0,1,0,8.43,0,4.216,4.216,0,1,0-8.43,0Zm4.2-2.94c1.5,0,2.52,1.05,2.52,2.94s-1.02,2.97-2.52,2.97-2.49-1.08-2.49-2.97S49.44,12.05,50.94,12.05ZM49.11,32h2.13l12.3-21h-2.1Zm8.43-3.99a4.2,4.2,0,1,0,8.4,0,4.2,4.2,0,1,0-8.4,0Zm4.2-2.94c1.5,0,2.49,1.05,2.49,2.94s-.99,2.94-2.49,2.94-2.52-1.05-2.52-2.94S60.24,25.07,61.74,25.07Z" transform="translate(121.78 79.919)" fill="#fff"/>
  <path id="Tracé_18" data-name="Tracé 18" d="M16.32,32h3.6L12.45,11.12H8.49L1.02,32H4.59l1.5-4.26h8.73Zm-2.46-7.05H7.05l3.42-9.69Zm8.16-1.29c0,5.1,3.45,8.61,7.8,8.61a6.853,6.853,0,0,0,5.73-2.76V32H39V9.8H35.55v7.98a7.613,7.613,0,0,0-5.7-2.58C25.47,15.2,22.02,18.56,22.02,23.66Zm13.53.06c0,3.57-2.43,5.58-5.01,5.58-2.55,0-5.01-2.07-5.01-5.64s2.46-5.49,5.01-5.49C33.12,18.17,35.55,20.18,35.55,23.72Zm23.7,0a8.152,8.152,0,0,0-8.43-8.52,8.152,8.152,0,0,0-8.43,8.52c0,5.19,3.57,8.55,8.28,8.55A8.28,8.28,0,0,0,59.25,23.72Zm-13.38,0c0-3.75,2.31-5.55,4.89-5.55,2.55,0,4.98,1.8,4.98,5.55s-2.52,5.58-5.07,5.58C48.09,29.3,45.87,27.47,45.87,23.72Zm20.19-5.79V9.8H62.64V32h3.42V29.6a7.025,7.025,0,0,0,5.76,2.67c4.35,0,7.77-3.51,7.77-8.61S76.2,15.2,71.82,15.2A7.067,7.067,0,0,0,66.06,17.93Zm10.05,5.73c0,3.57-2.46,5.64-5.04,5.64-2.55,0-5.01-2.01-5.01-5.58,0-3.54,2.46-5.55,5.01-5.55C73.65,18.17,76.11,20.09,76.11,23.66Zm13.83-5.58a4.292,4.292,0,0,1,4.62,4.17H85.41A4.5,4.5,0,0,1,89.94,18.08Zm7.74,9H93.99a4,4,0,0,1-3.9,2.31,4.547,4.547,0,0,1-4.71-4.38H98.01a10.55,10.55,0,0,0,.12-1.68,7.709,7.709,0,0,0-8.04-8.13c-4.89,0-8.25,3.33-8.25,8.52s3.51,8.55,8.25,8.55A7.553,7.553,0,0,0,97.68,27.08ZM121.5,32h3.84l-6.48-10.41,6.51-10.44h-3.81l-4.44,7.62-4.74-7.62h-3.84l6.51,10.44L108.57,32h3.81l4.41-7.56Zm6.45-8.34c0,5.1,3.45,8.61,7.8,8.61a6.853,6.853,0,0,0,5.73-2.76V32h3.45V9.8h-3.45v7.98a7.613,7.613,0,0,0-5.7-2.58C131.4,15.2,127.95,18.56,127.95,23.66Zm13.53.06c0,3.57-2.43,5.58-5.01,5.58-2.55,0-5.01-2.07-5.01-5.64s2.46-5.49,5.01-5.49C139.05,18.17,141.48,20.18,141.48,23.72Z" transform="translate(383.78 101.419)" fill="#fff"/>
  <path id="Tracé_19" data-name="Tracé 19" d="M2.25,32H5.67V11.15H2.25ZM21.9,32h3.39V22.25c0-4.62-2.91-7.05-6.78-7.05a6.359,6.359,0,0,0-4.92,2.16V15.47H10.17V32h3.42V22.76c0-3.03,1.65-4.59,4.17-4.59,2.49,0,4.14,1.56,4.14,4.59Zm6.6-8.34c0,5.1,3.45,8.61,7.8,8.61a6.853,6.853,0,0,0,5.73-2.76V32h3.45V9.8H42.03v7.98a7.613,7.613,0,0,0-5.7-2.58C31.95,15.2,28.5,18.56,28.5,23.66Zm13.53.06c0,3.57-2.43,5.58-5.01,5.58-2.55,0-5.01-2.07-5.01-5.64s2.46-5.49,5.01-5.49C39.6,18.17,42.03,20.18,42.03,23.72Zm14.91-5.64a4.292,4.292,0,0,1,4.62,4.17H52.41A4.5,4.5,0,0,1,56.94,18.08Zm7.74,9H60.99a4,4,0,0,1-3.9,2.31,4.547,4.547,0,0,1-4.71-4.38H65.01a10.55,10.55,0,0,0,.12-1.68,7.709,7.709,0,0,0-8.04-8.13c-4.89,0-8.25,3.33-8.25,8.52s3.51,8.55,8.25,8.55A7.553,7.553,0,0,0,64.68,27.08Zm16.14.3c-.18-5.97-9.51-4.11-9.51-7.44,0-1.11.96-1.86,2.79-1.86,1.86,0,2.97.99,3.09,2.43h3.42c-.18-3.3-2.64-5.31-6.39-5.31-3.9,0-6.36,2.13-6.36,4.77,0,6.06,9.6,4.2,9.6,7.44,0,1.14-1.05,1.98-3.03,1.98-1.89,0-3.18-1.11-3.3-2.46H67.59c.15,3,2.94,5.34,6.9,5.34C78.39,32.27,80.82,30.17,80.82,27.38ZM84.51,32h3.42V15.47H84.51Zm1.74-18.72a2.19,2.19,0,1,0-2.19-2.19A2.158,2.158,0,0,0,86.25,13.28Zm5.04,10.38c0,5.1,3.45,8.61,7.8,8.61a7.1,7.1,0,0,0,5.73-2.76v2.76c0,3.3-1.98,4.92-4.62,4.92-2.37,0-4.2-1.17-4.71-2.88H92.1c.42,3.66,3.69,5.85,8.1,5.85,5.16,0,8.07-3.39,8.07-7.89V15.47h-3.45v2.4a7,7,0,0,0-5.73-2.67C94.74,15.2,91.29,18.56,91.29,23.66Zm13.53.06c0,3.57-2.43,5.58-5.01,5.58-2.55,0-5.01-2.07-5.01-5.64s2.46-5.49,5.01-5.49C102.39,18.17,104.82,20.18,104.82,23.72ZM124.5,32h3.39V22.25c0-4.62-2.91-7.05-6.78-7.05a6.359,6.359,0,0,0-4.92,2.16V15.47h-3.42V32h3.42V22.76c0-3.03,1.65-4.59,4.17-4.59,2.49,0,4.14,1.56,4.14,4.59Z" transform="translate(722.78 144.919)" fill="#fff"/>
  <path id="Tracé_20" data-name="Tracé 20" d="M.54,10.7v1.17H13.08L4.56,32H5.94l8.4-20.22V10.7ZM17.52,21.23c0,6.21,1.26,10.92,7.02,10.92,5.73,0,6.99-4.71,6.99-10.92,0-6.15-1.26-10.8-6.99-10.8C18.78,10.43,17.52,15.08,17.52,21.23Zm12.69,0c0,5.43-.81,9.69-5.67,9.69s-5.67-4.26-5.67-9.69c0-5.34.81-9.57,5.67-9.57S30.21,15.89,30.21,21.23Zm13.11-6.45a4.02,4.02,0,1,0,8.04,0,4.02,4.02,0,1,0-8.04,0Zm4.02-3.15a2.845,2.845,0,0,1,2.85,3.15,2.864,2.864,0,1,1-5.7,0A2.845,2.845,0,0,1,47.34,11.63ZM45.39,32h1.38L59.28,10.94H57.87Zm7.95-3.81a4.006,4.006,0,1,0,8.01,0,4.006,4.006,0,1,0-8.01,0Zm3.99-3.15a2.85,2.85,0,0,1,2.88,3.15,2.875,2.875,0,1,1-5.73,0A2.845,2.845,0,0,1,57.33,25.04Z" transform="translate(758.28 187.919)" fill="#fff"/>
  <path id="Tracé_23" data-name="Tracé 23" d="M2.25,11.15V32H12.72V29.24H5.67V11.15ZM15.57,32h3.42V15.47H15.57Zm1.74-18.72a2.19,2.19,0,1,0-2.19-2.19A2.158,2.158,0,0,0,17.31,13.28Zm5.04,10.38c0,5.1,3.45,8.61,7.8,8.61a7.1,7.1,0,0,0,5.73-2.76v2.76c0,3.3-1.98,4.92-4.62,4.92-2.37,0-4.2-1.17-4.71-2.88H23.16c.42,3.66,3.69,5.85,8.1,5.85,5.16,0,8.07-3.39,8.07-7.89V15.47H35.88v2.4a7,7,0,0,0-5.73-2.67C25.8,15.2,22.35,18.56,22.35,23.66Zm13.53.06c0,3.57-2.43,5.58-5.01,5.58-2.55,0-5.01-2.07-5.01-5.64s2.46-5.49,5.01-5.49C33.45,18.17,35.88,20.18,35.88,23.72ZM43.83,32h3.42V22.76c0-3.03,1.65-4.59,4.17-4.59,2.49,0,4.14,1.56,4.14,4.59V32h3.39V22.25c0-4.62-2.88-7.05-6.57-7.05a6.553,6.553,0,0,0-5.13,2.19V9.8H43.83Zm20.01-4.59c0,3.36,1.83,4.59,4.77,4.59h2.7V29.15h-2.1c-1.44,0-1.92-.51-1.92-1.74V18.26h4.02V15.47H67.29V11.36H63.84v4.11H61.89v2.79h1.95ZM77.88,23.3c0-3.51,1.56-4.56,4.08-4.56h.87V15.2a5.384,5.384,0,0,0-4.95,2.67v-2.4H74.46V32h3.42Zm23.85.42a8.43,8.43,0,1,0-16.86,0c0,5.19,3.57,8.55,8.28,8.55A8.28,8.28,0,0,0,101.73,23.72Zm-13.38,0c0-3.75,2.31-5.55,4.89-5.55,2.55,0,4.98,1.8,4.98,5.55S95.7,29.3,93.15,29.3C90.57,29.3,88.35,27.47,88.35,23.72Zm32.52,0a8.43,8.43,0,1,0-16.86,0c0,5.19,3.57,8.55,8.28,8.55A8.28,8.28,0,0,0,120.87,23.72Zm-13.38,0c0-3.75,2.31-5.55,4.89-5.55,2.55,0,4.98,1.8,4.98,5.55s-2.52,5.58-5.07,5.58C109.71,29.3,107.49,27.47,107.49,23.72ZM147.69,32h3.39V22.25c0-4.62-2.94-7.05-6.81-7.05a6.472,6.472,0,0,0-5.76,3.27,6.376,6.376,0,0,0-5.94-3.27,6.3,6.3,0,0,0-4.89,2.16V15.47h-3.42V32h3.42V22.76c0-3.03,1.65-4.59,4.17-4.59,2.49,0,4.14,1.56,4.14,4.59V32h3.39V22.76c0-3.03,1.65-4.59,4.17-4.59,2.49,0,4.14,1.56,4.14,4.59Z" transform="translate(1070.64 154.419)" fill="#fff"/>
  <path id="Tracé_25" data-name="Tracé 25" d="M16.02,16.04c-.42-3.27-2.46-5.67-6.33-5.67-5.55,0-7.56,4.35-7.56,11.13,0,5.76,1.29,10.65,7.8,10.65,4.92,0,6.9-3.39,6.9-7.02,0-4.53-2.58-7.29-6.9-7.29-3.18,0-5.91,1.68-6.57,4.5-.27-7.92,2.16-10.83,6.33-10.83,3,0,4.62,1.71,5.04,4.53Zm-6.3,2.97c3.63,0,5.79,2.19,5.79,6.15,0,3.66-2.25,5.85-5.64,5.85-4.44,0-6.27-3.15-6.27-6.36C3.6,20.78,6.81,19.01,9.72,19.01Zm10.92,2.22c0,6.21,1.26,10.92,7.02,10.92,5.73,0,6.99-4.71,6.99-10.92,0-6.15-1.26-10.8-6.99-10.8C21.9,10.43,20.64,15.08,20.64,21.23Zm12.69,0c0,5.43-.81,9.69-5.67,9.69s-5.67-4.26-5.67-9.69c0-5.34.81-9.57,5.67-9.57S33.33,15.89,33.33,21.23Zm4.65-6.45a4.02,4.02,0,1,0,8.04,0,4.02,4.02,0,1,0-8.04,0ZM42,11.63a2.845,2.845,0,0,1,2.85,3.15,2.864,2.864,0,1,1-5.7,0A2.845,2.845,0,0,1,42,11.63ZM40.05,32h1.38L53.94,10.94H52.53ZM48,28.19a4.006,4.006,0,1,0,8.01,0,4.006,4.006,0,1,0-8.01,0Zm3.99-3.15a2.85,2.85,0,0,1,2.88,3.15,2.875,2.875,0,1,1-5.73,0A2.845,2.845,0,0,1,51.99,25.04Z" transform="translate(1119.64 197.419)" fill="#fff"/>
  <path id="Tracé_26" data-name="Tracé 26" d="M2.25,32H5.67V11.15H2.25Zm7.92,0h3.42V9.8H10.17Zm7.92,0h3.42V9.8H18.09ZM40.98,15.47H37.56v9.21c0,3.03-1.65,4.59-4.17,4.59-2.49,0-4.14-1.56-4.14-4.59V15.47H25.86v9.72c0,4.62,2.94,7.05,6.81,7.05a6.153,6.153,0,0,0,4.89-2.22V32h3.42ZM57.81,27.38c-.18-5.97-9.51-4.11-9.51-7.44,0-1.11.96-1.86,2.79-1.86,1.86,0,2.97.99,3.09,2.43H57.6c-.18-3.3-2.64-5.31-6.39-5.31-3.9,0-6.36,2.13-6.36,4.77,0,6.06,9.6,4.2,9.6,7.44,0,1.14-1.05,1.98-3.03,1.98-1.89,0-3.18-1.11-3.3-2.46H44.58c.15,3,2.94,5.34,6.9,5.34C55.38,32.27,57.81,30.17,57.81,27.38Zm4.23.03c0,3.36,1.83,4.59,4.77,4.59h2.7V29.15h-2.1c-1.44,0-1.92-.51-1.92-1.74V18.26h4.02V15.47H65.49V11.36H62.04v4.11H60.09v2.79h1.95ZM76.08,23.3c0-3.51,1.56-4.56,4.08-4.56h.87V15.2a5.384,5.384,0,0,0-4.95,2.67v-2.4H72.66V32h3.42Zm6.96.36c0,5.1,3.45,8.61,7.74,8.61a7.115,7.115,0,0,0,5.79-2.73V32h3.45V15.47H96.57v2.4a7.036,7.036,0,0,0-5.73-2.67C86.49,15.2,83.04,18.56,83.04,23.66Zm13.53.06c0,3.57-2.43,5.58-5.01,5.58-2.55,0-5.01-2.07-5.01-5.64s2.46-5.49,5.01-5.49C94.14,18.17,96.57,20.18,96.57,23.72Zm8.49,3.69c0,3.36,1.83,4.59,4.77,4.59h2.7V29.15h-2.1c-1.44,0-1.92-.51-1.92-1.74V18.26h4.02V15.47h-4.02V11.36h-3.45v4.11h-1.95v2.79h1.95Zm26.37-3.69a8.43,8.43,0,1,0-16.86,0c0,5.19,3.57,8.55,8.28,8.55A8.28,8.28,0,0,0,131.43,23.72Zm-13.38,0c0-3.75,2.31-5.55,4.89-5.55,2.55,0,4.98,1.8,4.98,5.55s-2.52,5.58-5.07,5.58C120.27,29.3,118.05,27.47,118.05,23.72Zm20.19-.42c0-3.51,1.56-4.56,4.08-4.56h.87V15.2a5.384,5.384,0,0,0-4.95,2.67v-2.4h-3.42V32h3.42Z" transform="translate(1414.78 197.419)" fill="#fff"/>
  <path id="Tracé_28" data-name="Tracé 28" d="M2.49,10.67V22.19H3.75a6.235,6.235,0,0,1,5.67-3.15c3.75,0,5.73,2.22,5.73,5.76,0,3.51-1.83,6.15-5.85,6.15a5.579,5.579,0,0,1-5.85-4.74H2.13c.57,3.63,3.24,5.94,7.17,5.94,5.07,0,7.14-3.48,7.14-7.38,0-3.42-1.8-6.9-6.9-6.9a7.125,7.125,0,0,0-5.76,2.61V11.87H15.3v-1.2ZM20.16,21.23c0,6.21,1.26,10.92,7.02,10.92,5.73,0,6.99-4.71,6.99-10.92,0-6.15-1.26-10.8-6.99-10.8C21.42,10.43,20.16,15.08,20.16,21.23Zm12.69,0c0,5.43-.81,9.69-5.67,9.69s-5.67-4.26-5.67-9.69c0-5.34.81-9.57,5.67-9.57S32.85,15.89,32.85,21.23Zm4.65-6.45a4.02,4.02,0,1,0,8.04,0,4.02,4.02,0,1,0-8.04,0Zm4.02-3.15a2.845,2.845,0,0,1,2.85,3.15,2.864,2.864,0,1,1-5.7,0A2.845,2.845,0,0,1,41.52,11.63ZM39.57,32h1.38L53.46,10.94H52.05Zm7.95-3.81a4.006,4.006,0,1,0,8.01,0,4.006,4.006,0,1,0-8.01,0Zm3.99-3.15a2.85,2.85,0,0,1,2.88,3.15,2.875,2.875,0,1,1-5.73,0A2.845,2.845,0,0,1,51.51,25.04Z" transform="translate(1480.78 240.419)" fill="#fff"/>
  <path id="Tracé_21" data-name="Tracé 21" d="M.808-22.26V-20.4H13.244L4.477,0H6.684l8.674-20.582V-22.26Zm18.436-.062V-9.98H21.3a5.5,5.5,0,0,1,5.192-3.109c3.544,0,5.41,2.083,5.41,5.472,0,3.358-1.71,5.845-5.472,5.845a5.175,5.175,0,0,1-5.472-4.29H18.809c.56,3.7,3.3,6.156,7.617,6.156,5.254,0,7.555-3.544,7.555-7.741,0-3.513-1.834-7.306-7.213-7.306a6.916,6.916,0,0,0-5.5,2.487v-7.959H32.645v-1.9Zm26.364,4.695a4.212,4.212,0,0,0,4.353,4.477,4.219,4.219,0,0,0,4.384-4.477,4.211,4.211,0,0,0-4.384-4.446A4.2,4.2,0,0,0,45.609-17.628Zm4.353-3.047c1.555,0,2.612,1.088,2.612,3.047s-1.057,3.078-2.612,3.078-2.58-1.119-2.58-3.078S48.407-20.675,49.962-20.675ZM48.065,0h2.207L63.019-21.763H60.843ZM56.8-4.135A4.212,4.212,0,0,0,61.154.342a4.212,4.212,0,0,0,4.353-4.477,4.212,4.212,0,0,0-4.353-4.477A4.212,4.212,0,0,0,56.8-4.135Zm4.353-3.047c1.555,0,2.58,1.088,2.58,3.047s-1.026,3.047-2.58,3.047-2.612-1.088-2.612-3.047S59.6-7.182,61.154-7.182Z" transform="translate(418.78 171.679)" fill="#fff"/>
  <path id="Tracé_22" data-name="Tracé 22" d="M5.876-11.659v-7.057H9.793c2.767,0,4.011,1.306,4.011,3.544,0,2.176-1.244,3.513-4.011,3.513Zm11.565-3.513c0-3.513-2.518-6.436-7.648-6.436H2.332V0H5.876V-8.767H9.793C15.421-8.767,17.441-12.094,17.441-15.172ZM20.83,0h3.544V-9.576c0-3.14,1.71-4.757,4.322-4.757,2.58,0,4.29,1.617,4.29,4.757V0H36.5V-10.1c0-4.788-2.985-7.306-6.809-7.306a6.791,6.791,0,0,0-5.316,2.27v-7.866H20.83Zm36.5-8.581a8.448,8.448,0,0,0-8.736-8.83,8.448,8.448,0,0,0-8.736,8.83c0,5.379,3.7,8.861,8.581,8.861A8.58,8.58,0,0,0,57.33-8.581Zm-13.866,0c0-3.886,2.394-5.752,5.068-5.752,2.643,0,5.161,1.865,5.161,5.752S51.081-2.8,48.438-2.8C45.764-2.8,43.464-4.695,43.464-8.581ZM61.4-4.757C61.4-1.275,63.3,0,66.346,0h2.8V-2.954H66.968c-1.492,0-1.99-.529-1.99-1.8v-9.482h4.166v-2.891H64.978V-21.39H61.4v4.259H59.382v2.891H61.4ZM88.731-8.581a8.448,8.448,0,0,0-8.736-8.83,8.448,8.448,0,0,0-8.736,8.83c0,5.379,3.7,8.861,8.581,8.861A8.58,8.58,0,0,0,88.731-8.581Zm-13.866,0c0-3.886,2.394-5.752,5.068-5.752,2.643,0,5.161,1.865,5.161,5.752S82.482-2.8,79.839-2.8C77.165-2.8,74.865-4.695,74.865-8.581Zm30.157,3.793c-.187-6.187-9.856-4.259-9.856-7.71,0-1.15.995-1.928,2.891-1.928,1.928,0,3.078,1.026,3.2,2.518H104.8c-.187-3.42-2.736-5.5-6.622-5.5-4.042,0-6.591,2.207-6.591,4.943,0,6.28,9.949,4.353,9.949,7.71,0,1.181-1.088,2.052-3.14,2.052-1.959,0-3.3-1.15-3.42-2.549H91.311C91.467-2.145,94.358.28,98.462.28,102.5.28,105.022-1.9,105.022-4.788ZM108.846,0h3.544V-9.576c0-3.14,1.71-4.757,4.322-4.757,2.58,0,4.29,1.617,4.29,4.757V0h3.513V-10.1c0-4.788-2.985-7.306-6.809-7.306a6.791,6.791,0,0,0-5.316,2.27v-7.866h-3.544Zm36.5-8.581a8.448,8.448,0,0,0-8.736-8.83,8.448,8.448,0,0,0-8.736,8.83c0,5.379,3.7,8.861,8.581,8.861A8.58,8.58,0,0,0,145.346-8.581Zm-13.866,0c0-3.886,2.394-5.752,5.068-5.752,2.643,0,5.161,1.865,5.161,5.752S139.1-2.8,136.454-2.8C133.78-2.8,131.48-4.695,131.48-8.581ZM152.4-14.612v-2.518h-3.544V8.146H152.4V-2.487A7.745,7.745,0,0,0,158.372.28c4.508,0,8.052-3.638,8.052-8.923s-3.544-8.767-8.052-8.767A7.474,7.474,0,0,0,152.4-14.612Zm10.415,5.969c0,3.7-2.549,5.845-5.223,5.845-2.643,0-5.192-2.083-5.192-5.783,0-3.669,2.549-5.752,5.192-5.752C160.269-14.332,162.818-12.343,162.818-8.643Z" transform="translate(709.78 132.919)" fill="#fff"/>
  <path id="Tracé_24" data-name="Tracé 24" d="M16.913,0h3.731L12.9-21.639H8.8L1.057,0h3.7L6.311-4.415h9.047ZM14.364-7.306H7.306L10.85-17.348ZM24.437,0h3.575V-14.239h3.171v-2.891H28.012v-1.213c0-1.959.746-2.7,2.922-2.7V-24c-4.477,0-6.5,1.71-6.5,5.658v1.213H22.416v2.891h2.021ZM34.883-4.757c0,3.482,1.9,4.757,4.943,4.757h2.8V-2.954H40.448c-1.492,0-1.99-.529-1.99-1.8v-9.482h4.166v-2.891H38.458V-21.39H34.883v4.259H32.862v2.891h2.021ZM53.1-14.426c2.643,0,4.726,1.679,4.788,4.322H48.407A4.666,4.666,0,0,1,53.1-14.426ZM61.123-5.1H57.3A4.147,4.147,0,0,1,53.257-2.7a4.712,4.712,0,0,1-4.881-4.539H61.465a10.933,10.933,0,0,0,.124-1.741,7.989,7.989,0,0,0-8.332-8.425c-5.068,0-8.55,3.451-8.55,8.83S48.345.28,53.257.28A7.828,7.828,0,0,0,61.123-5.1Zm7.493-3.917c0-3.638,1.617-4.726,4.228-4.726h.9V-17.41a5.58,5.58,0,0,0-5.13,2.767v-2.487H65.071V0h3.544ZM97.032-21.639H85.093V0H97.032V-2.891H88.638V-9.514H96.1V-12.4H88.638v-6.342h8.394ZM101.82,0H105.4V-14.239h3.171v-2.891H105.4v-1.213c0-1.959.746-2.7,2.922-2.7V-24c-4.477,0-6.5,1.71-6.5,5.658v1.213H99.8v2.891h2.021Zm10.322,0h3.575V-14.239h3.171v-2.891h-3.171v-1.213c0-1.959.746-2.7,2.922-2.7V-24c-4.477,0-6.5,1.71-6.5,5.658v1.213h-2.021v2.891h2.021Zm17.1-14.426c2.643,0,4.726,1.679,4.788,4.322h-9.482A4.666,4.666,0,0,1,129.241-14.426ZM137.262-5.1h-3.824A4.147,4.147,0,0,1,129.4-2.7a4.712,4.712,0,0,1-4.881-4.539H137.6a10.933,10.933,0,0,0,.124-1.741A7.989,7.989,0,0,0,129.4-17.41c-5.068,0-8.55,3.451-8.55,8.83S124.484.28,129.4.28A7.828,7.828,0,0,0,137.262-5.1Zm2.767-3.482c0,5.379,3.482,8.861,8.394,8.861a7.7,7.7,0,0,0,7.9-5.689H152.5a3.912,3.912,0,0,1-4.073,2.7c-2.86,0-4.757-2.114-4.757-5.876,0-3.731,1.9-5.845,4.757-5.845a4,4,0,0,1,4.073,2.7h3.824c-.964-3.606-3.7-5.689-7.9-5.689C143.511-17.41,140.029-13.928,140.029-8.581Zm20.4,3.824c0,3.482,1.9,4.757,4.943,4.757h2.8V-2.954H165.99c-1.492,0-1.99-.529-1.99-1.8v-9.482h4.166v-2.891H164V-21.39h-3.575v4.259H158.4v2.891h2.021Zm23.784-.031c-.187-6.187-9.856-4.259-9.856-7.71,0-1.15.995-1.928,2.891-1.928,1.928,0,3.078,1.026,3.2,2.518h3.544c-.187-3.42-2.736-5.5-6.622-5.5-4.042,0-6.591,2.207-6.591,4.943,0,6.28,9.949,4.353,9.949,7.71,0,1.181-1.088,2.052-3.14,2.052-1.959,0-3.3-1.15-3.42-2.549H170.5c.155,3.109,3.047,5.534,7.151,5.534C181.69.28,184.208-1.9,184.208-4.788Z" transform="translate(1053.28 154.419)" fill="#fff"/>
  <path id="Tracé_27" data-name="Tracé 27" d="M1.15-10.85A10.789,10.789,0,0,0,12.187.187c4.508,0,8.394-2.238,10.042-6.467H17.97a6.037,6.037,0,0,1-5.783,3.389c-4.29,0-7.4-3.078-7.4-7.959s3.109-7.928,7.4-7.928A6.037,6.037,0,0,1,17.97-15.39h4.259c-1.648-4.228-5.534-6.5-10.042-6.5A10.808,10.808,0,0,0,1.15-10.85ZM26.364,0h3.544V-9.576c0-3.14,1.71-4.757,4.322-4.757,2.58,0,4.29,1.617,4.29,4.757V0h3.513V-10.1c0-4.788-2.985-7.306-6.809-7.306a6.791,6.791,0,0,0-5.316,2.27v-7.866H26.364Zm19-8.643C45.36-3.358,48.936.28,53.382.28a7.373,7.373,0,0,0,6-2.829V0h3.575V-17.131H59.382v2.487a7.292,7.292,0,0,0-5.938-2.767C48.936-17.41,45.36-13.928,45.36-8.643Zm14.022.062c0,3.7-2.518,5.783-5.192,5.783C51.547-2.8,49-4.943,49-8.643s2.549-5.689,5.192-5.689C56.864-14.332,59.382-12.249,59.382-8.581Zm11.783-.435c0-3.638,1.617-4.726,4.228-4.726h.9V-17.41a5.58,5.58,0,0,0-5.13,2.767v-2.487H67.621V0h3.544Zm7.213.373C78.378-3.358,81.953.28,86.4.28a7.373,7.373,0,0,0,6-2.829V0h3.575V-17.131H92.4v2.487a7.292,7.292,0,0,0-5.938-2.767C81.953-17.41,78.378-13.928,78.378-8.643ZM92.4-8.581c0,3.7-2.518,5.783-5.192,5.783-2.643,0-5.192-2.145-5.192-5.845s2.549-5.689,5.192-5.689C89.881-14.332,92.4-12.249,92.4-8.581Zm7.057,0c0,5.379,3.482,8.861,8.394,8.861a7.7,7.7,0,0,0,7.9-5.689h-3.824a3.912,3.912,0,0,1-4.073,2.7c-2.86,0-4.757-2.114-4.757-5.876,0-3.731,1.9-5.845,4.757-5.845a4,4,0,0,1,4.073,2.7h3.824c-.964-3.606-3.7-5.689-7.9-5.689C102.939-17.41,99.457-13.928,99.457-8.581Zm20.4,3.824c0,3.482,1.9,4.757,4.943,4.757h2.8V-2.954h-2.176c-1.492,0-1.99-.529-1.99-1.8v-9.482h4.166v-2.891h-4.166V-21.39h-3.575v4.259h-2.021v2.891h2.021Zm18.219-9.669c2.643,0,4.726,1.679,4.788,4.322h-9.482A4.666,4.666,0,0,1,138.071-14.426ZM146.092-5.1h-3.824A4.147,4.147,0,0,1,138.226-2.7a4.712,4.712,0,0,1-4.881-4.539h13.089a10.933,10.933,0,0,0,.124-1.741,7.989,7.989,0,0,0-8.332-8.425c-5.068,0-8.55,3.451-8.55,8.83S133.314.28,138.226.28A7.828,7.828,0,0,0,146.092-5.1Zm7.493-3.917c0-3.638,1.617-4.726,4.228-4.726h.9V-17.41a5.58,5.58,0,0,0-5.13,2.767v-2.487H150.04V0h3.544Zm15.3.373c0,5.285,3.575,8.923,8.021,8.923a7.373,7.373,0,0,0,6-2.829V0h3.575V-17.131H182.9v2.487a7.292,7.292,0,0,0-5.938-2.767C172.456-17.41,168.881-13.928,168.881-8.643Zm14.022.062c0,3.7-2.518,5.783-5.192,5.783-2.643,0-5.192-2.145-5.192-5.845s2.549-5.689,5.192-5.689C180.384-14.332,182.9-12.249,182.9-8.581ZM203.3,0h3.513V-10.1c0-4.788-3.016-7.306-7.026-7.306a6.59,6.59,0,0,0-5.1,2.238v-1.959h-3.544V0h3.544V-9.576c0-3.14,1.71-4.757,4.322-4.757,2.58,0,4.29,1.617,4.29,4.757Zm8.021,0h3.544V-17.131h-3.544Zm1.8-19.4a2.236,2.236,0,0,0,2.238-2.27,2.236,2.236,0,0,0-2.238-2.27,2.243,2.243,0,0,0-2.27,2.27A2.243,2.243,0,0,0,213.122-19.4ZM243.808,0h3.513V-10.1c0-4.788-3.047-7.306-7.057-7.306a6.707,6.707,0,0,0-5.969,3.389,6.608,6.608,0,0,0-6.156-3.389,6.524,6.524,0,0,0-5.068,2.238v-1.959h-3.544V0h3.544V-9.576c0-3.14,1.71-4.757,4.322-4.757,2.58,0,4.29,1.617,4.29,4.757V0H235.2V-9.576c0-3.14,1.71-4.757,4.322-4.757,2.58,0,4.29,1.617,4.29,4.757Zm6.84-8.643c0,5.285,3.575,8.923,8.021,8.923a7.373,7.373,0,0,0,6-2.829V0h3.575V-17.131h-3.575v2.487a7.292,7.292,0,0,0-5.938-2.767C254.223-17.41,250.648-13.928,250.648-8.643Zm14.022.062c0,3.7-2.518,5.783-5.192,5.783-2.643,0-5.192-2.145-5.192-5.845s2.549-5.689,5.192-5.689C262.151-14.332,264.669-12.249,264.669-8.581Zm8.8,3.824c0,3.482,1.9,4.757,4.943,4.757h2.8V-2.954h-2.176c-1.492,0-1.99-.529-1.99-1.8v-9.482h4.166v-2.891h-4.166V-21.39h-3.575v4.259h-2.021v2.891h2.021ZM300.8-8.581a8.448,8.448,0,0,0-8.736-8.83,8.448,8.448,0,0,0-8.736,8.83c0,5.379,3.7,8.861,8.581,8.861A8.58,8.58,0,0,0,300.8-8.581Zm-13.866,0c0-3.886,2.394-5.752,5.068-5.752,2.643,0,5.161,1.865,5.161,5.752S294.547-2.8,291.9-2.8C289.23-2.8,286.93-4.695,286.93-8.581Zm20.924-.435c0-3.638,1.617-4.726,4.228-4.726h.9V-17.41a5.58,5.58,0,0,0-5.13,2.767v-2.487h-3.544V0h3.544Z" transform="translate(1340.379 193.679)" fill="#fff"/>
  <path id="Tracé_16" data-name="Tracé 16" d="M5.876-11.659v-7.057H9.793c2.767,0,4.011,1.306,4.011,3.544,0,2.176-1.244,3.513-4.011,3.513Zm11.565-3.513c0-3.513-2.518-6.436-7.648-6.436H2.332V0H5.876V-8.767H9.793C15.421-8.767,17.441-12.094,17.441-15.172Zm6.933,6.156c0-3.638,1.617-4.726,4.228-4.726h.9V-17.41a5.58,5.58,0,0,0-5.13,2.767v-2.487H20.83V0h3.544Zm15.607-5.41c2.643,0,4.726,1.679,4.788,4.322H35.287A4.666,4.666,0,0,1,39.982-14.426ZM48-5.1H44.179A4.147,4.147,0,0,1,40.137-2.7a4.712,4.712,0,0,1-4.881-4.539H48.345a10.933,10.933,0,0,0,.124-1.741,7.989,7.989,0,0,0-8.332-8.425c-5.068,0-8.55,3.451-8.55,8.83S35.225.28,40.137.28A7.828,7.828,0,0,0,48-5.1ZM76.233,0h3.513V-10.1c0-4.788-3.047-7.306-7.057-7.306a6.708,6.708,0,0,0-5.969,3.389,6.608,6.608,0,0,0-6.156-3.389A6.524,6.524,0,0,0,55.5-15.172v-1.959H51.951V0H55.5V-9.576c0-3.14,1.71-4.757,4.322-4.757,2.58,0,4.29,1.617,4.29,4.757V0h3.513V-9.576c0-3.14,1.71-4.757,4.322-4.757,2.58,0,4.29,1.617,4.29,4.757Zm8.021,0H87.8V-17.131H84.254Zm1.8-19.4A2.236,2.236,0,0,0,88.3-21.67a2.236,2.236,0,0,0-2.238-2.27,2.243,2.243,0,0,0-2.27,2.27A2.243,2.243,0,0,0,86.057-19.4Zm13.617,4.974c2.643,0,4.726,1.679,4.788,4.322H94.98A4.666,4.666,0,0,1,99.675-14.426ZM107.7-5.1h-3.824A4.147,4.147,0,0,1,99.83-2.7a4.712,4.712,0,0,1-4.881-4.539h13.089a10.933,10.933,0,0,0,.124-1.741A7.989,7.989,0,0,0,99.83-17.41c-5.068,0-8.55,3.451-8.55,8.83S94.918.28,99.83.28A7.828,7.828,0,0,0,107.7-5.1Zm7.493-3.917c0-3.638,1.617-4.726,4.228-4.726h.9V-17.41a5.58,5.58,0,0,0-5.13,2.767v-2.487h-3.544V0h3.544Zm15.607-5.41c2.643,0,4.726,1.679,4.788,4.322H126.1A4.666,4.666,0,0,1,130.8-14.426ZM138.817-5.1h-3.824A4.147,4.147,0,0,1,130.951-2.7a4.712,4.712,0,0,1-4.881-4.539h13.089a10.934,10.934,0,0,0,.124-1.741,7.989,7.989,0,0,0-8.332-8.425c-5.068,0-8.55,3.451-8.55,8.83S126.039.28,130.951.28A7.828,7.828,0,0,0,138.817-5.1Zm15.576-6.56v-7.057h3.917c2.767,0,4.011,1.306,4.011,3.544,0,2.176-1.244,3.513-4.011,3.513Zm11.565-3.513c0-3.513-2.518-6.436-7.648-6.436h-7.462V0h3.544V-8.767h3.917C163.938-8.767,165.958-12.094,165.958-15.172Zm6.933,6.156c0-3.638,1.617-4.726,4.228-4.726h.9V-17.41a5.58,5.58,0,0,0-5.13,2.767v-2.487h-3.544V0h3.544Zm24.717.435a8.448,8.448,0,0,0-8.736-8.83,8.448,8.448,0,0,0-8.736,8.83c0,5.379,3.7,8.861,8.581,8.861A8.58,8.58,0,0,0,197.608-8.581Zm-13.866,0c0-3.886,2.394-5.752,5.068-5.752,2.643,0,5.161,1.865,5.161,5.752S191.359-2.8,188.716-2.8C186.043-2.8,183.742-4.695,183.742-8.581Z" transform="translate(54.835 23.939)" fill="#fff"/>
</svg>
