<svg xmlns="http://www.w3.org/2000/svg" width="1682.385" height="391.928" viewBox="0 0 1682.385 391.928">
  <g id="Vagues" transform="translate(-88.366 -2471)">
    <path id="Tracé_2" data-name="Tracé 2" d="M98.824,2885.832s89.84-206.826,147.164-199.93,78.941,199.93,145.057,199.93,97.249-144.583,157.554-147.609,129.2,153.1,184.173,160.829S806.012,2784.47,886.1,2784.47s103.317,111.487,168.7,114.582c24.975,1.182,48.478-13.623,72.4-32.494,38.3-30.217,77.45-70.88,124.656-70.88,76.385,0,107.7,103.375,183.607,103.375s104.079-65.005,173.82-61.746,171.18,75.214,171.18,75.214" transform="translate(-10 -50)" fill="none" stroke="#fff" stroke-width="1"/>
    <path id="Tracé_3" data-name="Tracé 3" d="M98.824,2885.832s89.84-206.826,147.164-199.93,78.941,199.93,145.057,199.93,97.249-144.583,157.554-147.609,129.2,153.1,184.173,160.829S806.012,2784.47,886.1,2784.47s103.317,111.487,168.7,114.582c24.975,1.182,48.478-13.623,72.4-32.494,38.3-30.217,77.45-70.88,124.656-70.88,76.385,0,107.7,103.375,183.607,103.375s104.079-65.005,173.82-61.746,171.18,75.214,171.18,75.214" transform="translate(-10 -63)" fill="none" stroke="#fff" stroke-width="1"/>
    <path id="Tracé_4" data-name="Tracé 4" d="M98.824,2885.832s89.84-206.826,147.164-199.93,78.941,199.93,145.057,199.93,97.249-144.583,157.554-147.609,129.2,153.1,184.173,160.829S806.012,2784.47,886.1,2784.47s103.317,111.487,168.7,114.582c24.975,1.182,48.478-13.623,72.4-32.494,38.3-30.217,77.45-70.88,124.656-70.88,76.385,0,107.7,103.375,183.607,103.375s104.079-65.005,173.82-61.746,171.18,75.214,171.18,75.214" transform="translate(-10 -80)" fill="none" stroke="#fff" stroke-width="1"/>
    <path id="Tracé_5" data-name="Tracé 5" d="M98.824,2885.832s89.84-206.826,147.164-199.93,78.941,199.93,145.057,199.93,97.249-144.583,157.554-147.609,129.2,153.1,184.173,160.829S806.012,2784.47,886.1,2784.47s103.317,111.487,168.7,114.582c24.975,1.182,48.478-13.623,72.4-32.494,38.3-30.217,77.45-70.88,124.656-70.88,76.385,0,107.7,103.375,183.607,103.375s104.079-65.005,173.82-61.746,171.18,75.214,171.18,75.214" transform="translate(-10 -97)" fill="none" stroke="#fff" stroke-width="1"/>
  </g>
  <g id="Logiciels" transform="translate(-88.366 -2471)">
    <text id="Final_Cut_Pro" data-name="Final Cut Pro" transform="translate(141 2471)" fill="#fff" font-size="30" font-family="Poppins-Medium, Poppins" font-weight="500"><tspan x="0" y="32">Final Cut Pro</tspan></text>
    <text id="_90_" data-name="90%" transform="translate(207 2514)" fill="#fff" font-size="30" font-family="Poppins-ExtraLight, Poppins" font-weight="200"><tspan x="0" y="32">90%</tspan></text>
    <text id="Final_Cut_Pro-2" data-name="Final Cut Pro" transform="translate(446 2536)" fill="#fff" font-size="30" font-family="Poppins-Medium, Poppins" font-weight="500"><tspan x="0" y="32">Final Cut Pro</tspan></text>
    <text id="_90_2" data-name="90%" transform="translate(512 2579)" fill="#fff" font-size="30" font-family="Poppins-ExtraLight, Poppins" font-weight="200"><tspan x="0" y="32">90%</tspan></text>
    <text id="Final_Cut_Pro-3" data-name="Final Cut Pro" transform="translate(795 2579)" fill="#fff" font-size="30" font-family="Poppins-Medium, Poppins" font-weight="500"><tspan x="0" y="32">Final Cut Pro</tspan></text>
    <text id="_90_3" data-name="90%" transform="translate(861 2622)" fill="#fff" font-size="30" font-family="Poppins-ExtraLight, Poppins" font-weight="200"><tspan x="0" y="32">90%</tspan></text>
    <text id="Final_Cut_Pro-4" data-name="Final Cut Pro" transform="translate(1144 2589)" fill="#fff" font-size="30" font-family="Poppins-Medium, Poppins" font-weight="500"><tspan x="0" y="32">Final Cut Pro</tspan></text>
    <text id="_90_4" data-name="90%" transform="translate(1210 2632)" fill="#fff" font-size="30" font-family="Poppins-ExtraLight, Poppins" font-weight="200"><tspan x="0" y="32">90%</tspan></text>
    <text id="Final_Cut_Pro-5" data-name="Final Cut Pro" transform="translate(1496 2632)" fill="#fff" font-size="30" font-family="Poppins-Medium, Poppins" font-weight="500"><tspan x="0" y="32">Final Cut Pro</tspan></text>
    <text id="_90_5" data-name="90%" transform="translate(1562 2675)" fill="#fff" font-size="30" font-family="Poppins-ExtraLight, Poppins" font-weight="200"><tspan x="0" y="32">90%</tspan></text>
  </g>
</svg>
