<?xml version="1.0" encoding="utf-8"?>
<!-- Generator: Adobe Illustrator 25.2.1, SVG Export Plug-In . SVG Version: 6.00 Build 0)  -->
<svg version="1.1" id="Calque_1" xmlns="http://www.w3.org/2000/svg" xmlns:xlink="http://www.w3.org/1999/xlink" x="0px" y="0px"
	 viewBox="0 0 1922 1082" style="enable-background:new 0 0 1922 1082;" xml:space="preserve">
<style type="text/css">
	.st0{fill:#151515;}
	.st1{fill:none;stroke:#FFFDFD;stroke-width:2;stroke-miterlimit:10;}
	.st2{fill:#FFFFFF;}
	.st3{font-family:'Poppins-Medium';}
	.st4{font-size:31.09px;}
	.st5{font-family:'Poppins-Light';}
</style>
<rect x="1" y="1" class="st0" width="1920" height="1080"/>
<path class="st1" d="M85.4,768.8c0,0,114-142.8,182.8-142.8s121.1,142.8,175.3,142.8s62-92.6,120.3-121.3s71.2,34.1,141.9,105.6
	c72,56.5,142.7-61.7,155.9-80.6s52.8-45.3,125.7,66.3c63.9,97.7,180.5-53.7,227.6-58.9c66.2-7.3,236.4,161.4,318.6,60.9
	c58.7-71.8,137.4,25.3,332.1,32.5"/>
<path class="st1" d="M85.4,754.6c0,0,114-142.8,182.8-142.8s121.1,142.8,175.3,142.8s62-92.6,120.3-121.3s71.2,34.1,141.9,105.7
	c71.9,56.5,142.7-61.7,155.9-80.6s52.8-45.3,125.7,66.3c63.8,97.6,180.6-53.7,227.6-59c66.2-7.3,236.4,161.4,318.6,60.9
	c58.7-71.9,137.4,25.3,332.1,32.5"/>
<path class="st1" d="M85.4,738.8c0,0,114-142.8,182.8-142.8s121.1,142.8,175.3,142.8s62-92.6,120.3-121.3s71.3,34.1,141.9,105.6
	c72,56.5,142.7-61.7,155.9-80.6s52.8-45.3,125.7,66.3c63.8,97.7,180.6-53.7,227.6-58.9c66.2-7.3,236.4,161.4,318.6,60.9
	c58.7-71.9,137.4,25.3,332.1,32.5"/>
<path class="st1" d="M85.7,726c0,0,114-142.8,182.8-142.8S389.6,726,443.8,726s62-92.6,120.3-121.3s71.2,34.1,141.9,105.6
	c72,56.5,142.7-61.7,155.9-80.6s52.8-45.3,125.7,66.2c63.8,97.7,180.6-53.7,227.6-58.9c66.2-7.3,236.4,161.4,318.6,60.9
	c58.7-71.9,137.4,25.3,332.1,32.5"/>
<text transform="matrix(1 0 0 1 190.56 450.33)" class="st2 st3 st4">Final Cut Pro</text>
<text transform="matrix(1 0 0 1 190.11 486.4)" class="st2 st3 st4">Premiere Pro</text>
<text transform="matrix(1 0 0 1 255.76 543.29)" class="st2 st5 st4">85 %</text>
<text transform="matrix(1 0 0 1 514.07 505.28)" class="st2 st3 st4">Adobe Xd</text>
<text transform="matrix(1 0 0 1 564.8 563)" class="st2 st5 st4">75 %</text>
<text transform="matrix(1 0 0 1 816.57 504.62)" class="st2 st3 st4">Photoshop</text>
<text transform="matrix(1 0 0 1 830.56 537.27)" class="st2 st3 st4">Indesign</text>
<text transform="matrix(1 0 0 1 867.3 590.31)" class="st2 st5 st4">70 %</text>
<text transform="matrix(1 0 0 1 1138.64 523.59)" class="st2 st3 st4">After Effects</text>
<text transform="matrix(1 0 0 1 1152.64 556.24)" class="st2 st3 st4">Lightroom</text>
<text transform="matrix(1 0 0 1 1189.37 609.29)" class="st2 st5 st4">60 %</text>
<text transform="matrix(1 0 0 1 1512.5601 563.08)" class="st2 st3 st4">Illustrator</text>
<text transform="matrix(1 0 0 1 1442.6 595.73)" class="st2 st3 st4">Character animator</text>
<text transform="matrix(1 0 0 1 1549.29 642.56)" class="st2 st5 st4">50 %</text>
</svg>
