<svg xmlns="http://www.w3.org/2000/svg" width="1682.385" height="274.7" viewBox="0 0 1682.385 274.7">
  <g id="Vagues" transform="translate(-88.366 -2588.229)">
    <path id="Tracé_2" data-name="Tracé 2" d="M98.824,2885.832s89.84-206.826,147.164-199.93,78.941,199.93,145.057,199.93,97.249-144.583,157.554-147.609,129.2,153.1,184.173,160.829S806.012,2784.47,886.1,2784.47s103.317,111.487,168.7,114.582c24.975,1.182,48.478-13.623,72.4-32.494,38.3-30.217,77.45-70.88,124.656-70.88,76.385,0,107.7,103.375,183.607,103.375s104.079-65.005,173.82-61.746,171.18,75.214,171.18,75.214" transform="translate(-10 -50)" fill="none" stroke="#fff" stroke-width="1"/>
    <path id="Tracé_3" data-name="Tracé 3" d="M98.824,2885.832s89.84-206.826,147.164-199.93,78.941,199.93,145.057,199.93,97.249-144.583,157.554-147.609,129.2,153.1,184.173,160.829S806.012,2784.47,886.1,2784.47s103.317,111.487,168.7,114.582c24.975,1.182,48.478-13.623,72.4-32.494,38.3-30.217,77.45-70.88,124.656-70.88,76.385,0,107.7,103.375,183.607,103.375s104.079-65.005,173.82-61.746,171.18,75.214,171.18,75.214" transform="translate(-10 -63)" fill="none" stroke="#fff" stroke-width="1"/>
    <path id="Tracé_4" data-name="Tracé 4" d="M98.824,2885.832s89.84-206.826,147.164-199.93,78.941,199.93,145.057,199.93,97.249-144.583,157.554-147.609,129.2,153.1,184.173,160.829S806.012,2784.47,886.1,2784.47s103.317,111.487,168.7,114.582c24.975,1.182,48.478-13.623,72.4-32.494,38.3-30.217,77.45-70.88,124.656-70.88,76.385,0,107.7,103.375,183.607,103.375s104.079-65.005,173.82-61.746,171.18,75.214,171.18,75.214" transform="translate(-10 -80)" fill="none" stroke="#fff" stroke-width="1"/>
    <path id="Tracé_5" data-name="Tracé 5" d="M98.824,2885.832s89.84-206.826,147.164-199.93,78.941,199.93,145.057,199.93,97.249-144.583,157.554-147.609,129.2,153.1,184.173,160.829S806.012,2784.47,886.1,2784.47s103.317,111.487,168.7,114.582c24.975,1.182,48.478-13.623,72.4-32.494,38.3-30.217,77.45-70.88,124.656-70.88,76.385,0,107.7,103.375,183.607,103.375s104.079-65.005,173.82-61.746,171.18,75.214,171.18,75.214" transform="translate(-10 -97)" fill="none" stroke="#fff" stroke-width="1"/>
  </g>
</svg>
